<?xml version="1.0" encoding="UTF-8"?>
<svg id="Layer_2" data-name="Layer 2" xmlns="http://www.w3.org/2000/svg" xmlns:xlink="http://www.w3.org/1999/xlink" viewBox="0 0 500 500">
  <defs>
    <style>
      .cls-1 {
        fill: url(#Degradado_sin_nombre_8-2);
      }

      .cls-1, .cls-2, .cls-3, .cls-4, .cls-5, .cls-6, .cls-7, .cls-8, .cls-9, .cls-10 {
        stroke-width: 0px;
      }

      .cls-2 {
        fill: url(#Degradado_sin_nombre_7-3);
      }

      .cls-3 {
        fill: url(#Degradado_sin_nombre_8);
      }

      .cls-4 {
        fill: url(#Degradado_sin_nombre_7-2);
      }

      .cls-5 {
        fill: #314fa5;
      }

      .cls-6 {
        fill: none;
      }

      .cls-7 {
        fill: url(#Degradado_sin_nombre_7);
      }

      .cls-8 {
        fill: #3f63c9;
      }

      .cls-9 {
        fill: url(#Degradado_sin_nombre_8-3);
      }

      .cls-10 {
        fill: #7197ff;
      }
    </style>
    <linearGradient id="Degradado_sin_nombre_8" data-name="Degradado sin nombre 8" x1="418.64" y1="438.58" x2="148.83" y2="380.44" gradientUnits="userSpaceOnUse">
      <stop offset="0" stop-color="#59a9f2"/>
      <stop offset=".98" stop-color="#50a5f1"/>
    </linearGradient>
    <linearGradient id="Degradado_sin_nombre_8-2" data-name="Degradado sin nombre 8" x1="41.27" y1="334.8" x2="144.42" y2="133.24" xlink:href="#Degradado_sin_nombre_8"/>
    <linearGradient id="Degradado_sin_nombre_8-3" data-name="Degradado sin nombre 8" x1="319.59" y1="27.04" x2="413.06" y2="241.2" xlink:href="#Degradado_sin_nombre_8"/>
    <linearGradient id="Degradado_sin_nombre_7" data-name="Degradado sin nombre 7" x1="349.18" y1="376.92" x2="456.77" y2="191.63" gradientUnits="userSpaceOnUse">
      <stop offset="0" stop-color="#556ee6"/>
      <stop offset=".98" stop-color="#5f77e7"/>
    </linearGradient>
    <linearGradient id="Degradado_sin_nombre_7-2" data-name="Degradado sin nombre 7" x1="83.78" y1="230.55" x2="167.29" y2="475.13" xlink:href="#Degradado_sin_nombre_7"/>
    <linearGradient id="Degradado_sin_nombre_7-3" data-name="Degradado sin nombre 7" x1="348.2" y1="147" x2="140.25" y2="71.39" xlink:href="#Degradado_sin_nombre_7"/>
  </defs>
  <g id="_0" data-name="0">
    <g>
      <rect class="cls-6" width="500" height="500"/>
      <g>
        <g>
          <g>
            <path class="cls-3" d="M247.24,454.59v-79.63c0-1.66-.89-3.2-2.33-4.03l-80.49-46.47c-4.22-2.44-8.88,2.43-6.26,6.54l80.49,126.1c2.51,3.93,8.58,2.15,8.58-2.51ZM252.76,380.96v89.38c0,3.59,3.88,5.83,6.99,4.03l167.74-96.84c4.22-2.44,2.34-8.9-2.54-8.69l-167.74,7.47c-2.49.11-4.45,2.16-4.45,4.65Z"/>
            <path class="cls-1" d="M59.61,342.09l77.4-149c1.15-2.21.35-4.94-1.8-6.18l-77.4-44.69c-3.11-1.79-6.99.45-6.99,4.03v193.69c0,4.88,6.54,6.47,8.79,2.15ZM74.2,145.31l68.96,39.82c1.44.83,3.22.83,4.66,0l80.49-46.47c4.22-2.44,2.34-8.9-2.54-8.69l-149.45,6.65c-4.65.21-6.15,6.36-2.12,8.69Z"/>
            <path class="cls-9" d="M439.43,129.37l-167.73-96.84c-4.22-2.44-8.88,2.43-6.26,6.54l90.34,141.53c1.34,2.1,4.1,2.77,6.26,1.53l77.4-44.69c3.11-1.79,3.11-6.28,0-8.07ZM366.06,289.03l68.96-132.75c2.15-4.13-2.43-8.51-6.46-6.18l-68.96,39.82c-1.44.83-2.33,2.37-2.33,4.03v92.94c0,4.88,6.54,6.47,8.79,2.15Z"/>
          </g>
          <g>
            <path class="cls-7" d="M274.23,370.03l149.45-6.65c4.65-.21,6.15-6.36,2.12-8.69l-68.96-39.82c-1.44-.83-3.22-.83-4.66,0l-80.49,46.47c-4.22,2.44-2.34,8.9,2.54,8.69ZM364.79,313.09l77.4,44.69c3.11,1.79,6.99-.45,6.99-4.03v-193.69c0-4.88-6.54-6.47-8.79-2.15l-77.4,149c-1.15,2.21-.35,4.94,1.8,6.18Z"/>
            <path class="cls-4" d="M133.94,210.97l-68.96,132.75c-2.15,4.13,2.43,8.51,6.46,6.18l68.96-39.82c1.44-.83,2.33-2.37,2.33-4.03v-92.94c0-4.88-6.54-6.47-8.79-2.15ZM137.97,317.87l-77.4,44.69c-3.11,1.79-3.11,6.27,0,8.07l167.74,96.84c4.22,2.44,8.88-2.43,6.26-6.54l-90.34-141.53c-1.34-2.1-4.1-2.77-6.26-1.53Z"/>
            <path class="cls-2" d="M252.76,45.41v79.63c0,1.66.89,3.2,2.33,4.03l80.49,46.47c4.22,2.44,8.88-2.43,6.26-6.54l-80.49-126.1c-2.51-3.93-8.58-2.15-8.58,2.51ZM247.24,119.04V29.67c0-3.59-3.88-5.83-6.99-4.03L72.52,122.47c-4.22,2.44-2.34,8.9,2.54,8.69l167.74-7.47c2.49-.11,4.45-2.16,4.45-4.65Z"/>
          </g>
        </g>
        <g id="Axonometric_Cube" data-name="Axonometric Cube">
          <polygon id="Cube_face_-_top" data-name="Cube face - top" class="cls-10" points="250 251.36 182.5 212.43 250 173.5 317.5 212.43 250 251.36"/>
          <polygon id="Cube_face_-_left" data-name="Cube face - left" class="cls-5" points="250 326.5 182.5 287.57 182.5 212.43 250 251.36 250 326.5"/>
          <polygon id="Cube_face_-_right" data-name="Cube face - right" class="cls-8" points="317.5 287.57 250 326.5 250 251.36 317.5 212.43 317.5 287.57"/>
        </g>
      </g>
    </g>
  </g>
</svg>