<?xml version="1.0" encoding="UTF-8"?>
<svg id="Layer_2" data-name="Layer 2" xmlns="http://www.w3.org/2000/svg" viewBox="0 0 100 100">
  <defs>
    <style>
      .cls-1 {
        fill: #3b77b8;
      }

      .cls-1, .cls-2, .cls-3, .cls-4 {
        stroke-width: 0px;
      }

      .cls-2 {
        fill: #fff;
      }

      .cls-3 {
        fill: #4d4e50;
      }

      .cls-4 {
        fill: #f2f2f2;
      }
    </style>
  </defs>
  <g id="Layer_1-2" data-name="Layer 1">
    <g id="Sync_Discussion">
      <g>
        <circle class="cls-4" cx="50" cy="50" r="48.75"/>
        <path class="cls-3" d="M50,2.5c26.19,0,47.5,21.31,47.5,47.5s-21.31,47.5-47.5,47.5S2.5,76.19,2.5,50,23.81,2.5,50,2.5M50,0C22.39,0,0,22.39,0,50s22.39,50,50,50,50-22.39,50-50S77.61,0,50,0h0Z"/>
      </g>
      <g>
        <g>
          <path class="cls-3" d="M61.6,18.36H29.08c-1.77,0-3.21,1.26-3.21,2.82v15.35c0,1.56,1.44,2.82,3.21,2.82h13.07l-.43,4.82,4.78-4.82h15.1c1.77,0,3.21-1.26,3.21-2.82v-15.35c0-1.56-1.44-2.82-3.21-2.82Z"/>
          <path class="cls-1" d="M73.66,31.97h-7.4v5.54c0,1.67-1.55,3.03-3.46,3.03h-9.76v3.7c0,.97.9,1.76,2.01,1.76h9.92l2.99,3.02-.27-3.02h5.96c1.11,0,2.01-.79,2.01-1.76v-10.51c0-.97-.9-1.76-2.01-1.76Z"/>
        </g>
        <g>
          <path class="cls-3" d="M39.19,45.34c-4.85,0-8.77,3.93-8.77,8.77s3.93,8.77,8.77,8.77,8.77-3.93,8.77-8.77-3.93-8.77-8.77-8.77Z"/>
          <path class="cls-3" d="M44.27,63.72h-10.16c-4.55,0-8.25,3.69-8.25,8.25v4h26.65v-4c0-4.55-3.69-8.25-8.25-8.25Z"/>
        </g>
        <path class="cls-2" d="M34.59,64.59c-.19,0-.37.01-.56.03l1.89,9.93h1.22l1.02-6.68h.04l-1-1.83h3.99l-1,1.83h.04l1.02,6.68h1.22l1.89-9.93c-.19-.01-.37-.03-.56-.03h-9.2Z"/>
        <polygon class="cls-1" points="40.19 67.87 41.18 66.04 37.19 66.04 38.19 67.87 38.16 67.87 37.14 74.55 41.24 74.55 40.22 67.87 40.19 67.87"/>
        <rect class="cls-2" x="31.65" y="23.8" width="27.38" height="1.61"/>
        <rect class="cls-2" x="31.65" y="27.87" width="27.38" height="1.62"/>
        <rect class="cls-2" x="31.65" y="31.94" width="14" height="1.61"/>
        <path class="cls-3" d="M73.63,65.3c-1.04-.43-1.78-1.59-1.78-2.96v-3.76h0s0-.09,0-.13c0-4.03-3.39-7.27-7.48-7.02-3.5.22-6.35,3.07-6.57,6.57-.25,4.09,2.99,7.48,7.02,7.48.13,0,.26,0,.39-.01h8.4c.1,0,.12-.13.03-.17Z"/>
        <path class="cls-3" d="M68.88,66.14h-8.14c-3.65,0-6.61,2.96-6.61,6.61v3.21h21.37v-3.21c0-3.65-2.96-6.61-6.61-6.61Z"/>
        <polygon class="cls-3" points="64.81 74.2 64.86 74.2 66.55 69.08 63.07 69.05 64.81 74.2"/>
        <path class="cls-2" d="M60.95,68.33c.09.16,2.09,1.97,2.09,1.97l-1.35,1.3,3.12,3.38-2.63-7.87s-1.39.94-1.23,1.22Z"/>
        <path class="cls-2" d="M67.45,67.12l-2.63,7.87,3.12-3.38-1.35-1.3s2-1.81,2.09-1.97c.16-.28-1.23-1.22-1.23-1.22Z"/>
      </g>
    </g>
  </g>
</svg>