<?xml version="1.0" encoding="UTF-8"?>
<svg id="Layer_2" data-name="Layer 2" xmlns="http://www.w3.org/2000/svg" viewBox="0 0 100 100">
  <defs>
    <style>
      .cls-1 {
        fill: #3b77b8;
      }

      .cls-1, .cls-2, .cls-3, .cls-4 {
        stroke-width: 0px;
      }

      .cls-2 {
        fill: #fff;
      }

      .cls-3 {
        fill: #4d4e50;
      }

      .cls-4 {
        fill: #f2f2f2;
      }
    </style>
  </defs>
  <g id="Layer_1-2" data-name="Layer 1">
    <g id="Sync_Team">
      <g>
        <circle class="cls-4" cx="50" cy="50" r="48.75"/>
        <path class="cls-3" d="M50,2.5c26.19,0,47.5,21.31,47.5,47.5s-21.31,47.5-47.5,47.5S2.5,76.19,2.5,50,23.81,2.5,50,2.5M50,0C22.39,0,0,22.39,0,50s22.39,50,50,50,50-22.39,50-50S77.61,0,50,0h0Z"/>
      </g>
      <g>
        <g>
          <g>
            <path class="cls-3" d="M73.28,35.17c-4.57,0-8.27,3.7-8.27,8.27s3.7,8.27,8.27,8.27,8.27-3.7,8.27-8.27-3.7-8.27-8.27-8.27Z"/>
            <path class="cls-3" d="M78.07,52.49h-9.57c-1.8,0-3.46.62-4.78,1.65,3.33,2.06,5.57,5.71,5.66,9.89h16.47v-3.77c0-4.29-3.48-7.77-7.77-7.77Z"/>
            <g>
              <path class="cls-2" d="M68.95,53.31c-.18,0-.35.01-.53.03l1.78,9.36h1.15l.96-6.29h.03l-.94-1.73h3.76l-.94,1.73h.03l.96,6.29h1.15l1.78-9.36c-.17-.01-.35-.03-.53-.03h-8.67Z"/>
              <polygon class="cls-3" points="74.22 56.41 75.16 54.68 71.4 54.68 72.34 56.41 72.31 56.41 71.35 62.7 75.21 62.7 74.25 56.41 74.22 56.41"/>
            </g>
          </g>
          <g>
            <path class="cls-3" d="M28.67,35.17c-4.57,0-8.27,3.7-8.27,8.27s3.7,8.27,8.27,8.27,8.27-3.7,8.27-8.27-3.7-8.27-8.27-8.27Z"/>
            <path class="cls-3" d="M23.89,52.49c-4.29,0-7.77,3.48-7.77,7.77v3.77h16.5c.08-4.17,2.32-7.82,5.64-9.88-1.32-1.04-2.98-1.66-4.79-1.66h-9.57Z"/>
            <g>
              <path class="cls-2" d="M24.34,53.31c-.18,0-.35.01-.53.03l1.78,9.36h1.15l.96-6.29h.03l-.94-1.73h3.76l-.94,1.73h.03l.96,6.29h1.15l1.78-9.36c-.18-.01-.35-.03-.53-.03h-8.67Z"/>
              <polygon class="cls-3" points="29.61 56.41 30.55 54.68 26.79 54.68 27.73 56.41 27.7 56.41 26.74 62.7 30.6 62.7 29.65 56.41 29.61 56.41"/>
            </g>
          </g>
        </g>
        <g>
          <g>
            <path class="cls-3" d="M50.98,29.81c-6.22,0-11.27,5.05-11.27,11.27s5.04,11.27,11.27,11.27,11.27-5.04,11.27-11.27-5.04-11.27-11.27-11.27Z"/>
            <path class="cls-3" d="M57.5,53.4h-13.04c-5.85,0-10.59,4.74-10.59,10.59v5.14h34.23v-5.14c0-5.85-4.74-10.59-10.59-10.59Z"/>
          </g>
          <path class="cls-2" d="M45.07,54.52c-.24,0-.48.02-.72.04l2.43,12.76h1.56l1.31-8.58h.05l-1.28-2.36h5.13l-1.28,2.36h.05l1.31,8.58h1.56l2.43-12.76c-.24-.02-.48-.04-.72-.04h-11.81Z"/>
          <polygon class="cls-1" points="52.26 58.74 53.54 56.39 48.41 56.39 49.69 58.74 49.65 58.74 48.34 67.32 53.61 67.32 52.3 58.74 52.26 58.74"/>
        </g>
      </g>
    </g>
  </g>
</svg>