<?xml version="1.0" encoding="UTF-8"?>
<svg id="Layer_2" data-name="Layer 2" xmlns="http://www.w3.org/2000/svg" viewBox="0 0 100 100">
  <defs>
    <style>
      .cls-1 {
        fill: #3b77b8;
      }

      .cls-1, .cls-2, .cls-3, .cls-4, .cls-5 {
        stroke-width: 0px;
      }

      .cls-2 {
        fill: #fff;
      }

      .cls-3 {
        fill: #4e4f51;
      }

      .cls-4 {
        fill: #4d4e50;
      }

      .cls-5 {
        fill: #f2f2f2;
      }
    </style>
  </defs>
  <g id="Layer_1-2" data-name="Layer 1">
    <g>
      <g>
        <circle class="cls-5" cx="50" cy="50" r="48.75"/>
        <path class="cls-4" d="M50,2.5c26.19,0,47.5,21.31,47.5,47.5s-21.31,47.5-47.5,47.5S2.5,76.19,2.5,50,23.81,2.5,50,2.5M50,0C22.39,0,0,22.39,0,50s22.39,50,50,50,50-22.39,50-50S77.61,0,50,0h0Z"/>
      </g>
      <g>
        <g>
          <path class="cls-4" d="M84.44,24.96H25.16c-.56,0-1.02,1.03-1.02,2.29s.46,2.29,1.02,2.29h59.28c.56,0,1.02-1.03,1.02-2.29s-.46-2.29-1.02-2.29Z"/>
          <path class="cls-4" d="M84.44,66.06H25.16c-.56,0-1.02.46-1.02,1.02s.46,1.02,1.02,1.02h59.28c.56,0,1.02-.46,1.02-1.02s-.46-1.02-1.02-1.02Z"/>
          <rect class="cls-3" x="27.48" y="27.25" width="54.84" height="39.82"/>
          <rect class="cls-2" x="30.11" y="29.54" width="49.58" height="36.51"/>
        </g>
        <g>
          <g>
            <path class="cls-4" d="M28.35,40.2c-5.02,0-9.09,4.07-9.09,9.09s4.07,9.09,9.09,9.09,9.09-4.07,9.09-9.09-4.07-9.09-9.09-9.09Z"/>
            <path class="cls-4" d="M33.62,59.24h-10.53c-4.72,0-8.55,3.83-8.55,8.55v4.15h27.62v-4.15c0-4.72-3.83-8.55-8.55-8.55Z"/>
          </g>
          <path class="cls-2" d="M23.58,60.14c-.2,0-.39.01-.58.03l1.96,10.3h1.26l1.05-6.92h.04l-1.03-1.9h4.14l-1.03,1.9h.04l1.05,6.92h1.26l1.96-10.3c-.19-.02-.38-.03-.58-.03h-9.54Z"/>
          <polygon class="cls-1" points="29.39 63.55 30.42 61.65 26.28 61.65 27.32 63.55 27.28 63.55 26.23 70.47 30.48 70.47 29.42 63.55 29.39 63.55"/>
        </g>
        <rect class="cls-4" x="41.32" y="49.76" width="8.84" height="8.31"/>
        <rect class="cls-4" x="53.98" y="42.15" width="8.84" height="15.92"/>
        <g>
          <polygon class="cls-1" points="70.42 58.07 75.48 51.67 75.48 49.99 69.09 58.07 70.42 58.07"/>
          <polygon class="cls-1" points="68.75 58.07 75.48 49.55 75.48 47.88 67.42 58.07 68.75 58.07"/>
          <polygon class="cls-1" points="66.64 35.4 67.96 33.74 66.64 33.74 66.64 35.4"/>
          <polygon class="cls-1" points="66.64 50.17 75.48 39 75.48 37.32 66.64 48.5 66.64 50.17"/>
          <polygon class="cls-1" points="66.64 52.28 75.48 41.11 75.48 39.43 66.64 50.61 66.64 52.28"/>
          <polygon class="cls-1" points="66.64 58.07 67.08 58.07 75.48 47.44 75.48 45.76 66.64 56.94 66.64 58.07"/>
          <polygon class="cls-1" points="66.64 48.06 75.48 36.89 75.48 35.21 66.64 46.38 66.64 48.06"/>
          <polygon class="cls-1" points="66.64 56.51 75.48 45.33 75.48 43.65 66.64 54.83 66.64 56.51"/>
          <polygon class="cls-1" points="66.64 35.83 66.64 37.51 69.62 33.74 68.3 33.74 66.64 35.83"/>
          <polygon class="cls-1" points="66.64 54.4 75.48 43.22 75.48 41.54 66.64 52.72 66.64 54.4"/>
          <polygon class="cls-1" points="66.64 40.05 66.64 41.73 72.96 33.74 71.64 33.74 66.64 40.05"/>
          <polygon class="cls-1" points="73.76 58.07 75.48 55.89 75.48 54.21 72.43 58.07 73.76 58.07"/>
          <polygon class="cls-1" points="75.43 58.07 75.48 58 75.48 56.32 74.1 58.07 75.43 58.07"/>
          <polygon class="cls-1" points="66.64 42.16 66.64 43.84 74.63 33.74 73.31 33.74 66.64 42.16"/>
          <polygon class="cls-1" points="72.09 58.07 75.48 53.78 75.48 52.1 70.76 58.07 72.09 58.07"/>
          <polygon class="cls-1" points="66.64 37.94 66.64 39.62 71.29 33.74 69.97 33.74 66.64 37.94"/>
          <polygon class="cls-1" points="66.64 44.27 66.64 45.95 75.48 34.78 75.48 33.74 74.98 33.74 66.64 44.27"/>
          <polygon class="cls-2" points="66.64 35.4 66.64 35.83 68.3 33.74 67.96 33.74 66.64 35.4"/>
          <polygon class="cls-2" points="66.64 37.51 66.64 37.94 69.97 33.74 69.62 33.74 66.64 37.51"/>
          <polygon class="cls-2" points="66.64 39.62 66.64 40.05 71.64 33.74 71.29 33.74 66.64 39.62"/>
          <polygon class="cls-2" points="66.64 41.73 66.64 42.16 73.31 33.74 72.96 33.74 66.64 41.73"/>
          <polygon class="cls-2" points="66.64 43.84 66.64 44.27 74.98 33.74 74.63 33.74 66.64 43.84"/>
          <polygon class="cls-2" points="66.64 46.38 75.48 35.21 75.48 34.78 66.64 45.95 66.64 46.38"/>
          <polygon class="cls-2" points="66.64 48.5 75.48 37.32 75.48 36.89 66.64 48.06 66.64 48.5"/>
          <polygon class="cls-2" points="66.64 50.61 75.48 39.43 75.48 39 66.64 50.17 66.64 50.61"/>
          <polygon class="cls-2" points="66.64 52.72 75.48 41.54 75.48 41.11 66.64 52.28 66.64 52.72"/>
          <polygon class="cls-2" points="66.64 54.83 75.48 43.65 75.48 43.22 66.64 54.4 66.64 54.83"/>
          <polygon class="cls-2" points="66.64 56.94 75.48 45.76 75.48 45.33 66.64 56.51 66.64 56.94"/>
          <polygon class="cls-2" points="67.42 58.07 75.48 47.88 75.48 47.44 67.08 58.07 67.42 58.07"/>
          <polygon class="cls-2" points="69.09 58.07 75.48 49.99 75.48 49.55 68.75 58.07 69.09 58.07"/>
          <polygon class="cls-2" points="70.76 58.07 75.48 52.1 75.48 51.67 70.42 58.07 70.76 58.07"/>
          <polygon class="cls-2" points="72.43 58.07 75.48 54.21 75.48 53.78 72.09 58.07 72.43 58.07"/>
          <polygon class="cls-2" points="74.1 58.07 75.48 56.32 75.48 55.89 73.76 58.07 74.1 58.07"/>
          <polygon class="cls-2" points="75.48 58.07 75.48 58 75.43 58.07 75.48 58.07"/>
        </g>
      </g>
    </g>
  </g>
</svg>