<?xml version="1.0" encoding="UTF-8"?>
<svg id="Layer_2" data-name="Layer 2" xmlns="http://www.w3.org/2000/svg" viewBox="0 0 100 100">
  <defs>
    <style>
      .cls-1 {
        fill: #4d4e50;
      }

      .cls-1, .cls-2 {
        stroke-width: 0px;
      }

      .cls-2 {
        fill: #f2f2f2;
      }
    </style>
  </defs>
  <g id="Layer_1-2" data-name="Layer 1">
    <g>
      <circle class="cls-2" cx="50" cy="50" r="48.75"/>
      <path class="cls-1" d="M50,2.5c26.19,0,47.5,21.31,47.5,47.5s-21.31,47.5-47.5,47.5S2.5,76.19,2.5,50,23.81,2.5,50,2.5M50,0C22.39,0,0,22.39,0,50s22.39,50,50,50,50-22.39,50-50S77.61,0,50,0h0Z"/>
    </g>
    <path class="cls-1" d="M54.11,20.66c6.79.87,12.92,4.05,17.52,8.65,3.83,3.83,6.68,8.65,7.99,14.12h-.11c-.66,0-1.31.11-1.86.44-1.31-5.04-3.94-9.52-7.44-13.03-3.94-4.05-9.09-6.79-14.89-7.88-.33-.87-.66-1.64-1.2-2.3h0ZM20.49,50.11c2.63,0,3.94,2.3,4.82,4.82l.66,1.97c.11.44-.33.77-.66.77h-9.64c-.33,0-.77-.33-.66-.77l.66-1.97c.77-2.52,2.19-4.82,4.82-4.82h0ZM49.94,19.56c2.63,0,4.05,2.3,4.82,4.82l.66,1.97c.11.33-.33.66-.66.66h-9.53c-.44,0-.77-.33-.66-.66l.55-1.97c.88-2.52,2.19-4.82,4.82-4.82h0ZM49.94,13.76c1.42,0,2.52,1.2,2.52,2.52,0,1.42-1.1,2.63-2.52,2.63s-2.52-1.2-2.52-2.63c0-1.32,1.09-2.52,2.52-2.52h0ZM49.94,50.11c2.63,0,4.05,2.3,4.82,4.82l.66,1.97c.11.44-.33.77-.66.77h-9.53c-.44,0-.77-.33-.66-.77l.55-1.97c.88-2.52,2.19-4.82,4.82-4.82h0ZM49.94,44.41c1.42,0,2.52,1.1,2.52,2.52s-1.1,2.52-2.52,2.52-2.52-1.1-2.52-2.52,1.09-2.52,2.52-2.52h0ZM49.94,78.69c2.63,0,4.05,2.3,4.82,4.82l.66,1.97c.11.44-.33.77-.66.77h-9.53c-.44,0-.77-.33-.66-.77l.55-1.97c.88-2.52,2.19-4.82,4.82-4.82h0ZM49.94,72.99c1.42,0,2.52,1.1,2.52,2.52s-1.1,2.52-2.52,2.52-2.52-1.1-2.52-2.52,1.09-2.52,2.52-2.52h0ZM79.51,50.11c2.63,0,4.05,2.3,4.82,4.82l.66,1.97c.11.44-.33.77-.66.77h-9.53c-.44,0-.88-.33-.77-.77l.66-1.97c.88-2.52,2.19-4.82,4.82-4.82h0ZM79.51,44.41c1.42,0,2.52,1.1,2.52,2.52s-1.09,2.52-2.52,2.52-2.52-1.1-2.52-2.52,1.09-2.52,2.52-2.52h0ZM20.49,44.41c1.42,0,2.52,1.1,2.52,2.52s-1.1,2.52-2.52,2.52-2.52-1.1-2.52-2.52,1.1-2.52,2.52-2.52h0ZM79.62,58.65c-1.31,5.36-4.16,10.18-7.99,14.01-4.38,4.38-10.18,7.56-16.64,8.54-.66-1.2-1.42-2.19-2.52-2.84,1.31-1.32,2.52-3.72,3.61-6.79.88-2.74,1.64-6.13,2.19-9.96-2.63.22-5.48.33-8.32.33s-5.58-.11-8.21-.33c.44,3.83,1.2,7.22,2.19,9.96.98,3.07,2.19,5.47,3.5,6.79-.99.66-1.86,1.64-2.41,2.84-6.46-.98-12.26-4.16-16.75-8.54-3.72-3.83-6.57-8.65-7.99-14.01h2.19c1.32,4.82,3.83,9.09,7.34,12.59,4.16,4.16,9.64,7.12,15.77,7.99-1.42-1.64-2.63-3.94-3.61-7.01-.99-3.06-1.86-6.68-2.3-10.84-4.16-.55-7.88-1.32-10.95-2.41-.77-.22-1.53-.55-2.3-.77.44-.44.66-.98.44-1.54l-.11-.66c.77.44,1.64.77,2.63,1.1,2.85.87,6.24,1.64,10.07,2.19-.33-2.63-.44-5.47-.44-8.32s.11-5.58.44-8.21c-3.83.44-7.23,1.2-10.07,2.19-2.19.66-3.94,1.53-5.37,2.41,0-.11.11-.22.11-.44,0-.55-.22-1.2-.44-1.64,1.31-.88,3.07-1.65,5.04-2.3,3.07-.99,6.79-1.86,10.95-2.3.44-4.16,1.31-7.88,2.3-10.95.55-1.53,1.09-2.85,1.64-4.05v.33c-.33.88.33,1.75,1.2,1.97-.33.77-.66,1.54-.88,2.41-.99,2.85-1.75,6.24-2.19,10.07,2.63-.33,5.36-.44,8.21-.44s5.69.11,8.32.44c-.55-3.83-1.31-7.22-2.19-10.07-.33-.87-.66-1.64-.99-2.41.88-.22,1.53-1.09,1.31-1.97l-.11-.33c.66,1.2,1.2,2.52,1.64,4.05,1.09,3.07,1.86,6.79,2.41,10.95,4.05.44,7.77,1.31,10.84,2.3,2.08.66,3.72,1.42,5.15,2.3-.22.55-.33,1.09-.33,1.64v.55c-1.32-.99-3.18-1.75-5.48-2.52-2.74-.99-6.13-1.75-9.96-2.19.22,2.63.33,5.36.33,8.21s-.11,5.69-.33,8.32c3.83-.55,7.23-1.31,9.96-2.19.98-.33,1.97-.77,2.74-1.1l-.11.66c-.22.55,0,1.1.33,1.43-.66.33-1.42.66-2.3.88-3.06,1.09-6.79,1.86-10.84,2.41-.55,4.16-1.31,7.77-2.41,10.84-.99,3.07-2.19,5.37-3.61,7.01,6.13-.88,11.61-3.83,15.88-7.99,3.39-3.5,6.02-7.77,7.34-12.59h2.08ZM20.27,43.43c1.42-5.47,4.27-10.29,7.99-14.12,4.71-4.6,10.73-7.78,17.52-8.65-.44.66-.88,1.42-1.21,2.3-5.69,1.09-10.84,3.83-14.78,7.88-3.61,3.5-6.24,7.99-7.56,13.03-.44-.33-1.09-.44-1.75-.44h-.22ZM58.49,42.55c-2.74-.33-5.59-.44-8.54-.44s-5.8.11-8.54.44c-.22,2.63-.33,5.47-.33,8.43s.11,5.8.33,8.54c2.74.22,5.58.44,8.54.44s5.8-.22,8.54-.44c.22-2.74.44-5.58.44-8.54s-.22-5.8-.44-8.43h0Z"/>
  </g>
</svg>