<?xml version="1.0" encoding="UTF-8"?>
<svg id="Layer_2" data-name="Layer 2" xmlns="http://www.w3.org/2000/svg" viewBox="0 0 100 100">
  <defs>
    <style>
      .cls-1 {
        fill: #3b77b8;
      }

      .cls-1, .cls-2, .cls-3 {
        stroke-width: 0px;
      }

      .cls-2 {
        fill: #4d4e50;
      }

      .cls-3 {
        fill: #f2f2f2;
      }
    </style>
  </defs>
  <g id="Layer_1-2" data-name="Layer 1">
    <g>
      <g>
        <circle class="cls-3" cx="50" cy="50" r="48.75"/>
        <path class="cls-2" d="M50,2.5c26.19,0,47.5,21.31,47.5,47.5s-21.31,47.5-47.5,47.5S2.5,76.19,2.5,50,23.81,2.5,50,2.5M50,0C22.39,0,0,22.39,0,50s22.39,50,50,50,50-22.39,50-50S77.61,0,50,0h0Z"/>
      </g>
      <g>
        <g>
          <path class="cls-2" d="M23.81,51.96c-3.65-.23-6.69,2.67-6.69,6.27,0,.04,0,.08,0,.12h0v3.36c0,1.23-.66,2.27-1.59,2.65-.08.03-.06.15.03.15h7.5c.11,0,.23.01.35.01,3.6,0,6.5-3.03,6.27-6.69-.19-3.13-2.74-5.68-5.87-5.87Z"/>
          <path class="cls-2" d="M27.05,65.11h-7.28c-3.26,0-5.91,2.64-5.91,5.91v2.87h19.09v-2.87c0-3.26-2.64-5.91-5.91-5.91Z"/>
        </g>
        <path class="cls-2" d="M37.72,54.54c-2.58,0-4.67,2.09-4.67,4.68s2.09,4.68,4.67,4.68,4.68-2.09,4.68-4.68-2.09-4.68-4.68-4.68Z"/>
        <g>
          <path class="cls-2" d="M50.33,51.78c-3.5,0-6.33,2.83-6.33,6.33s2.83,6.33,6.33,6.33,6.33-2.83,6.33-6.33-2.83-6.33-6.33-6.33Z"/>
          <path class="cls-2" d="M54,65.04h-7.33c-3.29,0-5.95,2.66-5.95,5.95v2.89h19.23v-2.89c0-3.29-2.66-5.95-5.95-5.95Z"/>
        </g>
        <g>
          <path class="cls-2" d="M77.23,51.78c-3.5,0-6.33,2.83-6.33,6.33s2.83,6.33,6.33,6.33,6.33-2.83,6.33-6.33-2.83-6.33-6.33-6.33Z"/>
          <path class="cls-2" d="M80.9,65.04h-7.33c-3.29,0-5.95,2.66-5.95,5.95v2.89h19.23v-2.89c0-3.29-2.66-5.95-5.95-5.95Z"/>
        </g>
        <path class="cls-2" d="M65.65,64.33h-5.41c-1.02,0-1.96.35-2.7.93,1.88,1.17,3.15,3.23,3.2,5.59h6.18c.04-1.91.88-3.62,2.21-4.81-.8-1.04-2.06-1.71-3.48-1.71Z"/>
        <path class="cls-2" d="M35.01,64.33c-1.42,0-2.67.67-3.48,1.71,1.33,1.19,2.17,2.9,2.21,4.81h6.2c.05-2.36,1.31-4.42,3.19-5.59-.75-.59-1.69-.94-2.71-.94h-5.41Z"/>
        <path class="cls-2" d="M67.58,61.83v-2.5h0s0-.06,0-.09c0-2.69-2.26-4.85-4.98-4.68-2.33.15-4.23,2.04-4.38,4.38-.17,2.72,1.99,4.98,4.68,4.98.09,0,.17,0,.26,0h5.59c.06,0,.08-.09.02-.11-.69-.29-1.19-1.06-1.19-1.97Z"/>
        <path class="cls-2" d="M73.8,19.28H27.79c-1.78,0-3.23,1.51-3.23,3.36v27.79c.74.06,1.43.19,2.06.39v-28.18c0-.72.52-1.3,1.17-1.3h46.01c.64,0,1.17.59,1.17,1.3v28.07c.62-.29,1.31-.51,2.06-.64v-27.43c0-1.85-1.45-3.36-3.23-3.36Z"/>
        <polygon class="cls-1" points="55.06 44.9 46.47 37.89 39.47 47.63 35.79 44.64 31.68 50.08 29.73 48.51 36.3 39.51 39.17 42.21 46.18 32.5 54.09 38.56 61.07 29.32 55.8 25.14 70.98 21.96 71.87 37.74 65.64 32.95 55.06 44.9"/>
      </g>
    </g>
  </g>
</svg>