<?xml version="1.0" encoding="UTF-8"?>
<svg xmlns="http://www.w3.org/2000/svg" viewBox="0 0 100 100">
  <defs>
    <style>
      .cls-1 {
        fill: #2e2a36;
      }

      .cls-1, .cls-2, .cls-3, .cls-4, .cls-5, .cls-6, .cls-7, .cls-8, .cls-9, .cls-10 {
        stroke-width: 0px;
      }

      .cls-11 {
        isolation: isolate;
      }

      .cls-2 {
        fill: #666d78;
      }

      .cls-3 {
        fill: #fff;
      }

      .cls-4 {
        fill: #556476;
      }

      .cls-5 {
        fill: #7f8685;
      }

      .cls-6, .cls-9 {
        fill: #4c4e50;
      }

      .cls-7 {
        fill: #4b4d4c;
      }

      .cls-7, .cls-9 {
        mix-blend-mode: multiply;
      }

      .cls-8 {
        fill: #4d4e50;
      }

      .cls-10 {
        fill: #f2f2f2;
      }
    </style>
  </defs>
  <g class="cls-11">
    <g id="Layer_2" data-name="Layer 2">
      <g id="Layer_1-2" data-name="Layer 1">
        <g>
          <g>
            <circle class="cls-10" cx="50" cy="50" r="48.75"/>
            <path class="cls-8" d="M50,2.5c26.19,0,47.5,21.31,47.5,47.5s-21.31,47.5-47.5,47.5S2.5,76.19,2.5,50,23.81,2.5,50,2.5M50,0C22.39,0,0,22.39,0,50s22.39,50,50,50,50-22.39,50-50S77.61,0,50,0h0Z"/>
          </g>
          <g>
            <rect class="cls-6" x="27.5" y="25.61" width="45" height="56.2" rx="1.53" ry="1.53"/>
            <rect class="cls-7" x="31.75" y="29.62" width="38.42" height="49.86"/>
            <rect class="cls-5" x="30.79" y="28.78" width="38.42" height="49.86"/>
            <path class="cls-1" d="M55.56,22.21v-4.02h-11.12v4.02l-5.19,1.79v6.65h21.51v-6.65l-5.19-1.79ZM53.68,22.56h-7.37v-3.14h7.37v3.14Z"/>
            <polygon class="cls-9" points="41.4 28.49 41.4 24.61 44.44 22.21 39.25 23.99 39.25 30.64 60.75 30.64 60.75 28.49 41.4 28.49"/>
            <g>
              <g>
                <rect class="cls-3" x="34.49" y="35.2" width="10.06" height="10.3"/>
                <g>
                  <path class="cls-2" d="M42.43,42.23c-.02-.34-.39-.45-.39-.45l-1.14-.38-.48-.18c-.37.25-.77.34-.91.36-.13-.03-.54-.12-.91-.36l-.48.18-1.14.38s-.37.11-.39.45l-.36,1.95h6.54l-.36-1.95Z"/>
                  <path class="cls-2" d="M41.25,38.67c-.02,1.17-.81,2.11-1.77,2.09-.95-.02-1.71-.98-1.69-2.15.02-1.17.81-2.11,1.77-2.09.95.02,1.71.98,1.69,2.15Z"/>
                </g>
              </g>
              <g>
                <rect class="cls-3" x="34.49" y="48.56" width="10.06" height="10.3"/>
                <g>
                  <path class="cls-2" d="M42.43,55.6c-.02-.34-.39-.45-.39-.45l-1.14-.38-.48-.18c-.37.25-.77.34-.91.36-.13-.02-.54-.12-.91-.36l-.48.18-1.14.38s-.37.11-.39.45l-.36,1.95h6.54l-.36-1.95Z"/>
                  <path class="cls-2" d="M41.25,52.03c-.02,1.17-.81,2.11-1.77,2.09-.95-.02-1.71-.98-1.69-2.15.02-1.17.81-2.11,1.77-2.09.95.02,1.71.98,1.69,2.15Z"/>
                </g>
              </g>
              <g>
                <rect class="cls-3" x="34.49" y="61.93" width="10.06" height="10.3"/>
                <g>
                  <path class="cls-2" d="M42.43,68.97c-.02-.34-.39-.45-.39-.45l-1.14-.38-.48-.18c-.37.25-.77.34-.91.36-.13-.02-.54-.12-.91-.36l-.48.18-1.14.38s-.37.11-.39.45l-.36,1.95h6.54l-.36-1.95Z"/>
                  <path class="cls-2" d="M41.25,65.4c-.02,1.17-.81,2.11-1.77,2.09-.95-.02-1.71-.98-1.69-2.15.02-1.17.81-2.11,1.77-2.09.95.02,1.71.98,1.69,2.15Z"/>
                </g>
              </g>
              <g>
                <path class="cls-4" d="M65.51,36.66c0,.22-.17.39-.39.39h-18.27c-.22,0-.39-.17-.39-.39h0c0-.21.17-.39.39-.39h18.27c.22,0,.39.18.39.39h0Z"/>
                <path class="cls-4" d="M65.51,39.12c0,.22-.17.39-.39.39h-18.27c-.22,0-.39-.18-.39-.39h0c0-.22.17-.39.39-.39h18.27c.22,0,.39.18.39.39h0Z"/>
                <path class="cls-4" d="M65.51,41.58c0,.22-.17.39-.39.39h-18.27c-.22,0-.39-.18-.39-.39h0c0-.22.17-.39.39-.39h18.27c.22,0,.39.17.39.39h0Z"/>
                <path class="cls-4" d="M65.51,44.03c0,.22-.17.39-.39.39h-18.27c-.22,0-.39-.17-.39-.39h0c0-.22.17-.39.39-.39h18.27c.22,0,.39.17.39.39h0Z"/>
              </g>
              <g>
                <path class="cls-4" d="M65.51,50.03c0,.22-.17.39-.39.39h-18.27c-.22,0-.39-.17-.39-.39h0c0-.22.17-.39.39-.39h18.27c.22,0,.39.17.39.39h0Z"/>
                <path class="cls-4" d="M65.51,52.49c0,.22-.17.39-.39.39h-18.27c-.22,0-.39-.17-.39-.39h0c0-.21.17-.39.39-.39h18.27c.22,0,.39.18.39.39h0Z"/>
                <path class="cls-4" d="M65.51,54.94c0,.22-.17.39-.39.39h-18.27c-.22,0-.39-.18-.39-.39h0c0-.22.17-.39.39-.39h18.27c.22,0,.39.18.39.39h0Z"/>
                <path class="cls-4" d="M65.51,57.4c0,.22-.17.39-.39.39h-18.27c-.22,0-.39-.18-.39-.39h0c0-.22.17-.39.39-.39h18.27c.22,0,.39.17.39.39h0Z"/>
              </g>
              <g>
                <path class="cls-4" d="M65.51,63.4c0,.21-.17.39-.39.39h-18.27c-.22,0-.39-.18-.39-.39h0c0-.22.17-.39.39-.39h18.27c.22,0,.39.17.39.39h0Z"/>
                <path class="cls-4" d="M65.51,65.85c0,.22-.17.39-.39.39h-18.27c-.22,0-.39-.17-.39-.39h0c0-.22.17-.39.39-.39h18.27c.22,0,.39.17.39.39h0Z"/>
                <path class="cls-4" d="M65.51,68.31c0,.22-.17.39-.39.39h-18.27c-.22,0-.39-.17-.39-.39h0c0-.21.17-.39.39-.39h18.27c.22,0,.39.18.39.39h0Z"/>
                <path class="cls-4" d="M65.51,70.77c0,.22-.17.39-.39.39h-18.27c-.22,0-.39-.18-.39-.39h0c0-.22.17-.39.39-.39h18.27c.22,0,.39.17.39.39h0Z"/>
              </g>
            </g>
          </g>
        </g>
      </g>
    </g>
  </g>
</svg>